<?xml version="1.0" encoding="UTF-8" standalone="no"?>
<svg
   xmlns:dc="http://purl.org/dc/elements/1.1/"
   xmlns:cc="http://creativecommons.org/ns#"
   xmlns:rdf="http://www.w3.org/1999/02/22-rdf-syntax-ns#"
   xmlns:svg="http://www.w3.org/2000/svg"
   xmlns="http://www.w3.org/2000/svg"
   xmlns:sodipodi="http://sodipodi.sourceforge.net/DTD/sodipodi-0.dtd"
   xmlns:inkscape="http://www.inkscape.org/namespaces/inkscape"
   version="1.1"
   x="0px"
   y="0px"
   viewBox="0 0 50 50"
   enable-background="new 0 0 50 50"
   xml:space="preserve"
   id="svg893"
   sodipodi:docname="barbell.svg"
   width="50"
   height="50"
   inkscape:version="1.0.1 (3bc2e813f5, 2020-09-07)"
   inkscape:export-filename="C:\Users\paulk\Programming\JavaScript, HTML, and CSS\pkoepke.github.io\platesToWeightCalculator\barbell.png"
   inkscape:export-xdpi="983.03998"
   inkscape:export-ydpi="983.03998"><metadata
     id="metadata899"><rdf:RDF><cc:Work
         rdf:about=""><dc:format>image/svg+xml</dc:format><dc:type
           rdf:resource="http://purl.org/dc/dcmitype/StillImage" /><dc:title></dc:title></cc:Work></rdf:RDF></metadata><defs
     id="defs897" /><sodipodi:namedview
     pagecolor="#012169"
     bordercolor="#666666"
     borderopacity="1"
     objecttolerance="10"
     gridtolerance="10"
     guidetolerance="10"
     inkscape:pageopacity="1"
     inkscape:pageshadow="2"
     inkscape:window-width="1920"
     inkscape:window-height="1017"
     id="namedview895"
     showgrid="false"
     inkscape:zoom="11.313709"
     inkscape:cx="42.206564"
     inkscape:cy="30.300473"
     inkscape:window-x="1912"
     inkscape:window-y="-8"
     inkscape:window-maximized="1"
     inkscape:current-layer="layer1"
     inkscape:document-rotation="0"
     borderlayer="false"
     inkscape:showpageshadow="false"
     inkscape:pagecheckerboard="false" /><g
     id="g887"><path
       d="m 0.7,25.5 c 0,1 0.8,1.8 1.8,1.8 H 4.4 V 23.7 H 2.5 c -1,0 -1.8,0.8 -1.8,1.8 z"
       id="path873"
       style="opacity:1;fill:#ffffff;fill-opacity:1" /><rect
       x="14.9"
       y="23.700001"
       width="20.200001"
       height="3.5999999"
       id="rect875"
       style="opacity:1;fill:#ffffff;fill-opacity:1" /><path
       d="m 47.5,23.7 h -1.9 v 3.6 h 1.9 c 1,0 1.8,-0.8 1.8,-1.8 0,-1 -0.8,-1.8 -1.8,-1.8 z"
       id="path877"
       style="opacity:1;fill:#ffffff;fill-opacity:1" /><path
       d="m 42.7,16.5 c -1,0 -1.9,0.8 -1.9,1.9 v 13.3 c 0,1 0.8,1.9 1.9,1.9 1.1,0 1.9,-0.8 1.9,-1.9 V 18.4 c -0.1,-1.1 -0.9,-1.9 -1.9,-1.9 z"
       id="path879"
       style="opacity:1;fill:#ffffff;fill-opacity:1" /><path
       d="m 38,14.6 c -1,0 -1.9,0.8 -1.9,1.9 v 17.2 c 0,1 0.8,1.9 1.9,1.9 1.1,0 1.9,-0.8 1.9,-1.9 V 16.4 C 39.8,15.4 39,14.6 38,14.6 Z"
       id="path881"
       style="opacity:1;fill:#ffffff;fill-opacity:1" /><path
       d="m 12,14.6 c -1,0 -1.9,0.8 -1.9,1.9 v 17.2 c 0,1 0.8,1.9 1.9,1.9 1,0 1.9,-0.8 1.9,-1.9 V 16.4 c 0,-1 -0.8,-1.8 -1.9,-1.8 z"
       id="path883"
       style="opacity:1;fill:#ffffff;fill-opacity:1" /><path
       d="m 7.3,16.5 c -1,0 -1.9,0.8 -1.9,1.9 v 13.3 c 0,1 0.8,1.9 1.9,1.9 1.1,0 1.9,-0.8 1.9,-1.9 V 18.4 c 0,-1.1 -0.9,-1.9 -1.9,-1.9 z"
       id="path885"
       style="opacity:1;fill:#ffffff;fill-opacity:1" /></g><g
     inkscape:groupmode="layer"
     id="layer1"
     inkscape:label="Background"
     style="display:inline" /></svg>
