<svg xmlns="http://www.w3.org/2000/svg" xmlns:xlink="http://www.w3.org/1999/xlink" version="1.1" x="0px" y="0px" viewBox="0 0 50 62.5" enable-background="new 0 0 50 50" xml:space="preserve"><g><path d="M0.7,25.5c0,1,0.8,1.8,1.8,1.8h1.9v-3.6H2.5C1.5,23.7,0.7,24.5,0.7,25.5z"/><rect x="14.9" y="23.7" width="20.2" height="3.6"/><path d="M47.5,23.7h-1.9v3.6h1.9c1,0,1.8-0.8,1.8-1.8C49.3,24.5,48.5,23.7,47.5,23.7z"/><path d="M42.7,16.5c-1,0-1.9,0.8-1.9,1.9v13.3c0,1,0.8,1.9,1.9,1.9s1.9-0.8,1.9-1.9V18.4C44.5,17.3,43.7,16.5,42.7,16.5z"/><path d="M38,14.6c-1,0-1.9,0.8-1.9,1.9v17.2c0,1,0.8,1.9,1.9,1.9s1.9-0.8,1.9-1.9V16.4C39.8,15.4,39,14.6,38,14.6z"/><path d="M12,14.6c-1,0-1.9,0.8-1.9,1.9v17.2c0,1,0.8,1.9,1.9,1.9c1,0,1.9-0.8,1.9-1.9V16.4C13.9,15.4,13.1,14.6,12,14.6z"/><path d="M7.3,16.5c-1,0-1.9,0.8-1.9,1.9v13.3c0,1,0.8,1.9,1.9,1.9s1.9-0.8,1.9-1.9V18.4C9.2,17.3,8.3,16.5,7.3,16.5z"/></g><text x="0" y="65" fill="#000000" font-size="5px" font-weight="bold" font-family="'Helvetica Neue', Helvetica, Arial-Unicode, Arial, Sans-serif">Created by Vectors Market</text><text x="0" y="70" fill="#000000" font-size="5px" font-weight="bold" font-family="'Helvetica Neue', Helvetica, Arial-Unicode, Arial, Sans-serif">from the Noun Project</text></svg>