<svg xmlns="http://www.w3.org/2000/svg" xmlns:xlink="http://www.w3.org/1999/xlink" version="1.1" x="0px" y="0px" viewBox="0 0 60 75" style="enable-background:new 0 0 60 60;" xml:space="preserve"><path d="M27.1300049,28.710022h-7.7000122c-0.5499878,0-1,0.4500122-1,1V49.289978c0,0.5500488,0.4500122,1,1,1h7.7000122  c0.5499878,0,1-0.4499512,1-1V29.710022C28.1300049,29.1600342,27.6799927,28.710022,27.1300049,28.710022z"/><path d="M40.5599976,18.539978h-7.7000122c-0.5499878,0-1,0.4500122-1,1v29.75c0,0.5500488,0.4500122,1,1,1h7.7000122  c0.5499878,0,1-0.4499512,1-1v-29.75C41.5599976,18.9899902,41.1099854,18.539978,40.5599976,18.539978z"/><path d="M54,9.710022h-7.7000122c-0.5499878,0-1,0.4500122-1,1V49.289978c0,0.5500488,0.4500122,1,1,1H54  c0.5499878,0,1-0.4499512,1-1V10.710022C55,10.1600342,54.5499878,9.710022,54,9.710022z"/><path d="M14.6900024,49.289978V39.710022c0-0.5499878-0.4400024-1-1-1H6c-0.5599976,0-1,0.4500122-1,1v9.5799561  c0,0.5500488,0.4400024,1,1,1h7.6900024C14.25,50.289978,14.6900024,49.8400269,14.6900024,49.289978z"/><text x="0" y="75" fill="#000000" font-size="5px" font-weight="bold" font-family="'Helvetica Neue', Helvetica, Arial-Unicode, Arial, Sans-serif">Created by Vectorstall</text><text x="0" y="80" fill="#000000" font-size="5px" font-weight="bold" font-family="'Helvetica Neue', Helvetica, Arial-Unicode, Arial, Sans-serif">from the Noun Project</text></svg>