<?xml version="1.0" encoding="UTF-8" standalone="no"?>
<svg
   xmlns:dc="http://purl.org/dc/elements/1.1/"
   xmlns:cc="http://creativecommons.org/ns#"
   xmlns:rdf="http://www.w3.org/1999/02/22-rdf-syntax-ns#"
   xmlns:svg="http://www.w3.org/2000/svg"
   xmlns="http://www.w3.org/2000/svg"
   xmlns:sodipodi="http://sodipodi.sourceforge.net/DTD/sodipodi-0.dtd"
   xmlns:inkscape="http://www.inkscape.org/namespaces/inkscape"
   version="1.1"
   x="0px"
   y="0px"
   viewBox="0 0 54 51.999998"
   xml:space="preserve"
   id="svg14"
   sodipodi:docname="noun-signal-3671638-edited.svg"
   width="54"
   height="51.999996"
   inkscape:version="1.0.1 (3bc2e813f5, 2020-09-07)"
   inkscape:export-filename="C:\Users\paulk\Programming\JavaScript, HTML, and CSS\pkoepke.github.io\internet-access-checker-notifier\noun-signal-3671638-edited.png"
   inkscape:export-xdpi="847.4483"
   inkscape:export-ydpi="847.4483"><metadata
     id="metadata20"><rdf:RDF><cc:Work
         rdf:about=""><dc:format>image/svg+xml</dc:format><dc:type
           rdf:resource="http://purl.org/dc/dcmitype/StillImage" /><dc:title></dc:title></cc:Work></rdf:RDF></metadata><defs
     id="defs18" /><sodipodi:namedview
     pagecolor="#ffffff"
     bordercolor="#666666"
     borderopacity="1"
     objecttolerance="10"
     gridtolerance="10"
     guidetolerance="10"
     inkscape:pageopacity="0"
     inkscape:pageshadow="2"
     inkscape:window-width="1920"
     inkscape:window-height="1017"
     id="namedview16"
     showgrid="false"
     inkscape:zoom="10.177438"
     inkscape:cx="44.045474"
     inkscape:cy="27.348237"
     inkscape:window-x="-8"
     inkscape:window-y="-8"
     inkscape:window-maximized="1"
     inkscape:current-layer="svg14"
     fit-margin-top="5.71002"
     fit-margin-left="2"
     fit-margin-right="2"
     fit-margin-bottom="5.71002" /><path
     d="m 24.130005,24.71002 h -7.700012 c -0.549988,0 -1,0.450012 -1,1 v 19.579956 c 0,0.550049 0.450012,1 1,1 h 7.700012 c 0.549988,0 1,-0.449951 1,-1 V 25.71002 c 0,-0.549988 -0.450012,-1 -1,-1 z"
     id="path2" /><path
     d="m 37.559998,14.539976 h -7.700013 c -0.549987,0 -1,0.450012 -1,1 v 29.75 c 0,0.550049 0.450013,1 1,1 h 7.700013 c 0.549987,0 1,-0.449951 1,-1 v -29.75 c 0,-0.549988 -0.450013,-1 -1,-1 z"
     id="path4" /><path
     d="m 51,5.71002 h -7.700012 c -0.549988,0 -1,0.450012 -1,1 v 38.579956 c 0,0.550049 0.450012,1 1,1 H 51 c 0.549988,0 1,-0.449951 1,-1 V 6.71002 c 0,-0.549988 -0.450012,-1 -1,-1 z"
     id="path6" /><path
     d="M 11.690002,45.289976 V 35.71002 c 0,-0.549988 -0.440002,-1 -1,-1 H 3 c -0.559998,0 -1,0.450012 -1,1 v 9.579956 c 0,0.550049 0.440002,1 1,1 h 7.690002 c 0.559998,0 1,-0.449951 1,-1 z"
     id="path8" /></svg>
