<?xml version="1.0" encoding="UTF-8" standalone="no"?>
<svg
   xmlns:dc="http://purl.org/dc/elements/1.1/"
   xmlns:cc="http://creativecommons.org/ns#"
   xmlns:rdf="http://www.w3.org/1999/02/22-rdf-syntax-ns#"
   xmlns:svg="http://www.w3.org/2000/svg"
   xmlns="http://www.w3.org/2000/svg"
   xmlns:sodipodi="http://sodipodi.sourceforge.net/DTD/sodipodi-0.dtd"
   xmlns:inkscape="http://www.inkscape.org/namespaces/inkscape"
   viewBox="0 0 600 600"
   version="1.1"
   id="svg4"
   sodipodi:docname="signal-font-awesome.svg"
   width="600"
   height="600"
   inkscape:version="1.0.1 (3bc2e813f5, 2020-09-07)"
   inkscape:export-filename="C:\Users\paulk\Programming\JavaScript, HTML, and CSS\pkoepke.github.io\internet-access-checker-notifier\signal-font-awesome 512x512.png"
   inkscape:export-xdpi="81.919998"
   inkscape:export-ydpi="81.919998">
  <metadata
     id="metadata10">
    <rdf:RDF>
      <cc:Work
         rdf:about="">
        <dc:format>image/svg+xml</dc:format>
        <dc:type
           rdf:resource="http://purl.org/dc/dcmitype/StillImage" />
        <dc:title></dc:title>
      </cc:Work>
    </rdf:RDF>
  </metadata>
  <defs
     id="defs8" />
  <sodipodi:namedview
     pagecolor="#ffffff"
     bordercolor="#666666"
     borderopacity="1"
     objecttolerance="10"
     gridtolerance="10"
     guidetolerance="10"
     inkscape:pageopacity="0"
     inkscape:pageshadow="2"
     inkscape:window-width="1920"
     inkscape:window-height="1017"
     id="namedview6"
     showgrid="false"
     fit-margin-top="44"
     fit-margin-left="12"
     fit-margin-right="12"
     fit-margin-bottom="44"
     lock-margins="false"
     inkscape:zoom="1.1725267"
     inkscape:cx="303.65328"
     inkscape:cy="345.33809"
     inkscape:window-x="-8"
     inkscape:window-y="-8"
     inkscape:window-maximized="1"
     inkscape:current-layer="svg4" />
  <!--!Font Awesome Free 6.6.0 by @fontawesome - https://fontawesome.com License - https://fontawesome.com/license/free Copyright 2024 Fonticons, Inc.-->
  <path
     d="m 556,44 c 17.7,0 32,14.3 32,32 v 448 c 0,17.7 -14.3,32 -32,32 -17.7,0 -32,-14.3 -32,-32 V 76 c 0,-17.7 14.3,-32 32,-32 z m -128,96 c 17.7,0 32,14.3 32,32 v 352 c 0,17.7 -14.3,32 -32,32 -17.7,0 -32,-14.3 -32,-32 V 172 c 0,-17.7 14.3,-32 32,-32 z m -96,128 v 256 c 0,17.7 -14.3,32 -32,32 -17.7,0 -32,-14.3 -32,-32 V 268 c 0,-17.7 14.3,-32 32,-32 17.7,0 32,14.3 32,32 z m -160,64 c 17.7,0 32,14.3 32,32 v 160 c 0,17.7 -14.3,32 -32,32 -17.7,0 -32,-14.3 -32,-32 V 364 c 0,-17.7 14.3,-32 32,-32 z M 76,460 v 64 c 0,17.7 -14.3,32 -32,32 -17.7,0 -32,-14.3 -32,-32 v -64 c 0,-17.7 14.3,-32 32,-32 17.7,0 32,14.3 32,32 z"
     id="path2" />
</svg>
